<svg version="1.2" baseProfile="tiny-ps" xmlns="http://www.w3.org/2000/svg" viewBox="0 0 15 15" width="15" height="15">
	<title>Work</title>
	<style>
		tspan { white-space:pre }
		.shp0 { fill: #1fdab5 } 
	</style>
	<g id="Work">
		<g id="Raw 1">
			<g id="Hover">
				<g id="icon">
					<path id="Forma 1" class="shp0" d="M13.91 2.73L12.09 0.89C11.29 0.08 9.98 0.08 9.18 0.88L7.16 2.89C6.35 3.7 6.35 5.01 7.15 5.82L8.3 4.69C8.19 4.33 8.33 3.92 8.62 3.63L9.9 2.35C10.31 1.95 10.96 1.95 11.36 2.36L12.45 3.46C12.85 3.86 12.85 4.52 12.45 4.92L11.16 6.2C10.89 6.47 10.45 6.62 10.1 6.53L8.97 7.66C9.77 8.47 11.08 8.48 11.89 7.67L13.9 5.66C14.71 4.85 14.72 3.54 13.91 2.73ZM6.53 10.09C6.62 10.45 6.47 10.9 6.19 11.18L4.99 12.38C4.58 12.79 3.92 12.78 3.51 12.37L2.39 11.25C1.98 10.84 1.99 10.16 2.4 9.76L3.6 8.56C3.89 8.27 4.31 8.12 4.68 8.25L5.83 7.07C5.01 6.25 3.68 6.24 2.86 7.06L0.92 9.01C0.09 9.83 0.09 11.16 0.91 11.99L2.76 13.86C3.58 14.69 4.91 14.69 5.73 13.87L7.68 11.93C8.5 11.11 8.5 9.77 7.69 8.95L6.53 10.09ZM5.26 9.56C5.53 9.84 5.98 9.84 6.26 9.56L9.58 6.18C9.86 5.9 9.86 5.45 9.59 5.17C9.31 4.88 8.87 4.88 8.59 5.16L5.27 8.54C4.99 8.82 4.99 9.28 5.26 9.56Z" />
				</g>
			</g>
		</g>
	</g>
</svg>