<svg version="1.2" baseProfile="tiny-ps" xmlns="http://www.w3.org/2000/svg" viewBox="0 0 99 76" width="99" height="76">
	<title>4 option</title>
	<style>
		tspan { white-space:pre }
		.shp0 { fill: #ffffff } 
	</style>
	<g id="4 option">
		<g id="4">
			<path id="Forma 1" class="shp0" d="M0 76L38.8 76L38.8 18.98L0 18.98L0 76ZM20.22 73.14C19.18 73.14 18.35 72.31 18.35 71.3C18.35 70.3 19.18 69.47 20.22 69.47C21.25 69.47 22.09 70.3 22.09 71.3C22.09 72.31 21.25 73.14 20.22 73.14ZM5.61 24.47L33.19 24.47L33.19 66.54L5.61 66.54L5.61 24.47ZM19.19 5.36L81.36 5.36L81.36 30.08L86.84 30.08L86.84 0L13.71 0L13.71 16.54L19.19 16.54L19.19 5.36ZM41.3 41.87L70.11 41.87L70.11 47.24L41.3 47.24L41.3 41.87ZM72.94 32.16L72.94 75.11L99 75.11L99 32.16L72.94 32.16ZM86.55 33.94C86.9 33.94 87.18 34.22 87.18 34.56C87.18 34.9 86.9 35.18 86.55 35.18C86.2 35.18 85.92 34.9 85.92 34.56C85.92 34.21 86.2 33.94 86.55 33.94ZM82.8 36L90.3 36L90.3 36.59L82.8 36.59L82.8 36ZM86.3 73.25C85.48 73.25 84.8 72.59 84.8 71.78C84.8 70.97 85.47 70.31 86.3 70.31C87.13 70.31 87.81 70.96 87.81 71.78C87.81 72.59 87.13 73.25 86.3 73.25ZM94.82 68.2C88.05 68.23 80.48 68.26 77.12 68.23L77.12 38.7L94.82 38.7L94.82 68.2ZM49.23 49.44L41.3 49.44L41.3 52.69L60.61 52.69L60.61 54.11L41.3 54.11L41.3 57.05L70.11 57.05L70.11 49.44L51.31 49.44L49.23 49.44Z" />
		</g>
	</g>
</svg>