<svg version="1.2" baseProfile="tiny-ps" xmlns="http://www.w3.org/2000/svg" viewBox="0 0 60 96" width="60" height="96">
	<title>4 option</title>
	<style>
		tspan { white-space:pre }
		.shp0 { fill: #18cfab } 
	</style>
	<g id="4 option">
		<g id="3">
			<path id="Forma 1" class="shp0" d="M48 75C48 76.66 46.66 78 45 78L15 78C13.34 78 12 76.66 12 75C12 73.34 13.34 72 15 72L45 72C46.66 72 48 73.34 48 75ZM45 81L15 81C13.34 81 12 82.34 12 84C12 85.66 13.34 87 15 87L45 87C46.66 87 48 85.66 48 84C48 82.34 46.66 81 45 81ZM24 96L36 96C39.32 96 42 93.31 42 90L18 90C18 93.31 20.68 96 24 96ZM60 30C60 46.31 50.17 48.21 48.32 66C48.32 67.66 46.98 69 45.32 69L14.68 69C13.02 69 11.68 67.66 11.68 66L11.67 66C9.83 48.21 0 46.31 0 30C0 13.43 13.43 0 30 0C46.57 0 60 13.43 60 30ZM42.15 21C7.27 29.25 24.15 51 24.15 51C24.15 39 32.96 36.18 33.15 36.56C26.96 42.56 24.15 63 24.15 63L30.15 63C30.15 63 30.15 57 30.15 51C47.21 51.94 42.15 23.06 42.15 21Z" />
		</g>
	</g>
</svg>