<svg version="1.2" baseProfile="tiny-ps" xmlns="http://www.w3.org/2000/svg" viewBox="0 0 35 35" width="35" height="35">
	<title>Fun Fact</title>
	<style>
		tspan { white-space:pre }
		.shp0 { fill: #ffffff } 
	</style>
	<g id="Fun Fact">
		<g id="3">
			<g id="Icon copy 6">
				<path id="Forma 1" class="shp0" d="M10.5 28C8.57 28 7 29.57 7 31.5C7 33.42 8.57 35 10.5 35C12.42 35 14 33.42 14 31.5C14 29.57 12.42 28 10.5 28ZM0 0L0 3.5L3.5 3.5L9.8 16.8L7.35 21C7.17 21.52 7 22.22 7 22.75C7 24.67 8.57 26.25 10.5 26.25L31.5 26.25L31.5 22.75L11.2 22.75C11.02 22.75 10.85 22.57 10.85 22.4L10.85 22.22L12.42 19.25L25.37 19.25C26.77 19.25 27.82 18.55 28.35 17.5L34.65 6.12C35 5.77 35 5.6 35 5.25C35 4.2 34.3 3.5 33.25 3.5L7.35 3.5L5.77 0L0 0ZM28 28C26.07 28 24.5 29.57 24.5 31.5C24.5 33.42 26.07 35 28 35C29.92 35 31.5 33.42 31.5 31.5C31.5 29.57 29.92 28 28 28Z" />
			</g>
		</g>
	</g>
</svg>