<svg version="1.2" baseProfile="tiny-ps" xmlns="http://www.w3.org/2000/svg" viewBox="0 0 28 36" width="28" height="36">
	<title>Fun Fact</title>
	<style>
		tspan { white-space:pre }
		.shp0 { fill: #ffffff } 
	</style>
	<g id="Fun Fact">
		<g id="2">
			<g id="Icon copy 5">
				<path id="Forma 1" class="shp0" d="M14 17.6C18.09 17.6 21.41 13.66 21.41 8.8C21.41 3.94 20.32 -0.01 14 -0.01C7.68 -0.01 6.59 3.94 6.59 8.8C6.59 13.66 9.91 17.6 14 17.6ZM0 31.04C0 30.75 0 30.96 0 31.04L0 31.04ZM28 31.27C28 31.19 28 30.71 28 31.27L28 31.27ZM27.98 30.69C27.84 22.21 26.71 19.8 18.06 18.28C18.06 18.28 16.84 19.8 14 19.8C11.16 19.8 9.94 18.28 9.94 18.28C1.38 19.79 0.18 22.16 0.02 30.41C0.01 31.09 0 31.12 0 31.04C0 31.19 0 31.46 0 31.93C0 31.93 2.06 35.99 14 35.99C25.93 35.99 28 31.93 28 31.93C28 31.63 28 31.42 28 31.27C27.99 31.32 27.99 31.23 27.98 30.69Z" />
			</g>
		</g>
	</g>
</svg>