<svg version="1.2" baseProfile="tiny-ps" xmlns="http://www.w3.org/2000/svg" viewBox="0 0 43 38" width="43" height="38">
	<title>Fun Fact</title>
	<style>
		tspan { white-space:pre }
		.shp0 { fill: #ffffff } 
	</style>
	<g id="Fun Fact">
		<g id="4">
			<g id="Icon copy 7">
				<path id="Forma 1" class="shp0" d="M21.5 29.43C22.69 29.43 32.62 17.16 32.62 11.05C32.62 4.95 27.64 0 21.5 0C15.36 0 10.38 4.95 10.38 11.05C10.38 17.16 20.35 29.43 21.5 29.43ZM14.31 10.67C14.31 6.72 17.53 3.53 21.5 3.53C25.47 3.53 28.69 6.72 28.69 10.67C28.69 14.61 25.47 17.81 21.5 17.81C17.53 17.81 14.31 14.61 14.31 10.67ZM41.26 20.97C41.26 19.96 40.42 19.13 39.4 19.13C39.4 19.13 34.44 19.13 32.62 19.13C32.48 19.13 32.32 19.12 32.14 19.42C31.78 20.02 31.82 19.96 31.48 20.52C31.32 20.77 31.56 20.86 31.66 20.86C33.83 20.86 39.4 20.86 39.4 20.86C39.46 20.86 39.52 20.91 39.52 20.97L41.26 36.15C41.26 36.21 41.2 36.27 41.14 36.27L1.86 36.27C1.8 36.27 1.74 36.21 1.74 36.15L3.48 20.97C3.48 20.91 3.54 20.86 3.6 20.86C3.6 20.86 9.36 20.86 11.28 20.86C11.44 20.86 11.69 20.77 11.41 20.31C11.07 19.77 11.2 19.92 10.85 19.33C10.72 19.1 10.53 19.13 10.29 19.13C8.61 19.13 3.6 19.13 3.6 19.13C2.58 19.13 1.74 19.96 1.74 20.97L0 36.15C0 37.17 0.83 38 1.86 38L41.14 38C42.17 38 43 37.17 43 36.15L41.26 20.97Z" />
			</g>
		</g>
	</g>
</svg>