<svg version="1.2" baseProfile="tiny-ps" xmlns="http://www.w3.org/2000/svg" viewBox="0 0 37 31" width="37" height="31">
	<title>Fun Fact</title>
	<style>
		tspan { white-space:pre }
		.shp0 { fill: #ffffff } 
	</style>
	<g id="Fun Fact">
		<g id="1">
			<g id="Icon copy">
				<path id="Forma 1" class="shp0" d="M20.31 19L20.31 18.16C20.31 17.14 19.5 16.31 18.5 16.31C17.5 16.31 16.69 17.14 16.69 18.16L16.69 19C16.69 20.02 17.5 20.85 18.5 20.85C19.5 20.85 20.31 20.02 20.31 19ZM21.56 20.03C21.16 21.37 19.95 22.36 18.5 22.36C17.05 22.36 15.84 21.37 15.44 20.03L2.95 20.03C2.16 20.03 1.41 19.84 0.74 19.51L0.74 27.99C0.74 29.64 2.07 30.99 3.69 30.99L33.31 30.99C34.93 30.99 36.26 29.64 36.26 27.99L36.26 19.51C35.59 19.84 34.84 20.03 34.05 20.03L21.56 20.03L21.56 20.03ZM33.93 4.81L26.86 4.81C26.43 2.09 24.12 -0.01 21.33 -0.01L15.67 -0.01C12.88 -0.01 10.57 2.09 10.14 4.81L3.07 4.81C1.38 4.81 0 6.17 0 7.82L0 14.76C0 16.42 1.32 17.77 2.95 17.77L15.3 17.77C15.34 16.91 15.71 16.13 16.28 15.57C16.3 15.55 16.32 15.54 16.34 15.52C16.47 15.4 16.6 15.29 16.74 15.19C16.8 15.15 16.86 15.13 16.91 15.1C17.03 15.03 17.15 14.96 17.27 14.9C17.38 14.86 17.48 14.83 17.59 14.8C17.68 14.77 17.77 14.74 17.86 14.72C18.07 14.67 18.28 14.65 18.5 14.65C18.72 14.65 18.93 14.67 19.14 14.72C19.23 14.74 19.32 14.77 19.41 14.8C19.51 14.83 19.62 14.86 19.72 14.9C19.85 14.96 19.97 15.03 20.09 15.1C20.14 15.13 20.2 15.15 20.25 15.19C20.4 15.29 20.53 15.4 20.66 15.52C20.68 15.54 20.7 15.55 20.72 15.57C21.29 16.13 21.65 16.91 21.7 17.77L34.05 17.77C35.68 17.77 37 16.43 37 14.76L37 7.82C37 6.17 35.62 4.81 33.93 4.81ZM12.97 4.81C13.35 3.65 14.41 2.81 15.67 2.81L21.33 2.81C22.59 2.81 23.65 3.65 24.02 4.81L12.97 4.81Z" />
			</g>
		</g>
	</g>
</svg>